<?xml version="1.0" encoding="utf-8"?>
<!-- Generator: Adobe Illustrator 27.5.0, SVG Export Plug-In . SVG Version: 6.00 Build 0)  -->
<svg version="1.1" xmlns="http://www.w3.org/2000/svg" xmlns:xlink="http://www.w3.org/1999/xlink" x="0px" y="0px"
	 viewBox="0 0 1122 1122" style="enable-background:new 0 0 1122 1122;" xml:space="preserve">
<g id="Bg">
	<rect style="fill:#FFFFFF;" width="1122" height="1122"/>
</g>
<g id="Object">
	<g>
		<path style="fill:#AAD4C8;" d="M770.385,388.163h-63.414c-1.591,0-3.147,0.645-4.285,1.779c-1.113,1.117-1.755,2.675-1.755,4.264
			v16.806h78.641l-3.256-17.893C775.795,390.257,773.289,388.163,770.385,388.163z"/>
		<polygon style="fill:#AAD4C8;" points="700.931,604.067 814.819,604.067 781.302,420.435 700.931,420.435 		"/>
		<polygon style="fill:#82BFAB;" points="700.931,420.435 781.302,420.435 779.571,411.012 700.931,411.012 		"/>
		<path style="fill:#616E7D;" d="M815.593,604.067h-0.775H700.931h-1.828L484.545,440.734c-1.815-1.383-4.272-1.619-6.318-0.611
			c-2.064,1.022-3.371,3.128-3.371,5.41v148.748L273.178,440.734c-1.822-1.383-4.279-1.619-6.324-0.611
			c-2.058,1.022-3.365,3.128-3.365,5.41V610.11v217.398c0,1.592,0.641,3.147,1.773,4.282c1.12,1.116,2.675,1.761,4.267,1.761
			h583.891c1.792,0,3.474-0.786,4.624-2.154c1.15-1.371,1.634-3.147,1.319-4.911l-37.825-217.414
			C821.034,606.176,818.534,604.067,815.593,604.067z M407.963,653.509c0,1.401-0.532,2.705-1.525,3.698
			c-0.992,0.989-2.3,1.525-3.692,1.525h-78.302c-1.392,0-2.723-0.551-3.704-1.525c-0.969-0.978-1.525-2.315-1.525-3.698v-23.022
			c0-1.368,0.557-2.72,1.525-3.698c0.98-0.959,2.312-1.525,3.704-1.525h78.302c1.392,0,2.7,0.55,3.692,1.54
			c0.993,0.977,1.525,2.3,1.525,3.682V653.509z M618.586,653.509c0,1.401-0.545,2.705-1.525,3.698
			c-0.992,0.989-2.3,1.525-3.703,1.525h-78.302c-1.38,0-2.736-0.551-3.692-1.525c-0.992-0.978-1.549-2.315-1.549-3.698v-23.022
			c0-1.368,0.557-2.72,1.549-3.698c0.956-0.959,2.312-1.525,3.692-1.525h78.302c1.404,0,2.711,0.55,3.703,1.54
			c0.98,0.977,1.525,2.3,1.525,3.682V653.509z"/>
		<path style="fill:#AAD4C8;" d="M324.444,625.264c-1.392,0-2.723,0.566-3.704,1.525c-0.969,0.978-1.525,2.33-1.525,3.698v23.022
			c0,1.383,0.557,2.72,1.525,3.698c0.98,0.974,2.312,1.525,3.704,1.525h78.302c1.392,0,2.7-0.536,3.692-1.525
			c0.993-0.993,1.525-2.297,1.525-3.698v-23.022c0-1.383-0.532-2.705-1.525-3.682c-0.992-0.99-2.3-1.54-3.692-1.54H324.444z"/>
		<path style="fill:#AAD4C8;" d="M535.056,625.264c-1.38,0-2.736,0.566-3.692,1.525c-0.992,0.978-1.549,2.33-1.549,3.698v23.022
			c0,1.383,0.557,2.72,1.549,3.698c0.956,0.974,2.312,1.525,3.692,1.525h78.302c1.404,0,2.711-0.536,3.703-1.525
			c0.98-0.993,1.525-2.297,1.525-3.698v-23.022c0-1.383-0.545-2.705-1.525-3.682c-0.992-0.99-2.3-1.54-3.703-1.54H535.056z"/>
		<polygon style="fill:#82BFAB;" points="262.629,420.12 467.914,576.263 467.824,553.856 262.544,397.731 		"/>
		<polygon style="fill:#82BFAB;" points="478.033,426.669 683.307,582.809 683.222,560.401 477.937,404.261 		"/>
		<path style="fill:#82BFAB;" d="M684.275,298.377c-10.288-6.136-24.51-9.929-40.234-9.929c-17.43,0-33.032,4.672-43.442,12.023
			c-4.285-0.411-8.751-0.648-13.363-0.648c-31.362,0-56.805,10.01-56.805,22.362c0,12.334,25.443,22.359,56.805,22.359
			c4.612,0,9.078-0.236,13.363-0.645c10.41,7.332,26.012,12.019,43.442,12.019c15.723,0,29.945-3.792,40.234-9.928
			c10.276,6.136,24.499,9.928,40.222,9.928c31.374,0,56.805-15.106,56.805-33.734c0-18.632-25.431-33.737-56.805-33.737
			C708.775,288.449,694.552,292.241,684.275,298.377z"/>
	</g>
</g>
</svg>
